PathFileType	4	(X/Y/Z)	Patient4_TMGait_0pt5_01_left_27.trc.trc
DataRate	CameraRate	NumFrames	NumMarkers	Units	OrigDataRate	OrigDataStartFrame	OrigNumFrames
73.684210526316	73.684210526316	4	33	mm	73.684210526316	124	       141
Frame#	Time	L.ASIS			Sacral			L.Shoulder			Chest			R.Shoulder			Neck			R.ASIS			R.Thigh.Superior			R.Thigh.Lateral			R.Thigh.Inferior			R.Patella			L.Thigh.Superior			L.Thigh.Lateral			L.Thigh.Inferior			L.Patella			L.Shank.Superior			L.Shank.Lateral			L.Shank.Inferior			R.Shank.Superior			R.Shank.Lateral			R.Shank.Inferior			R.Heel			R.Midfoot.Superior			R.Midfoot.Lateral			R.Toe			L.Heel			L.Midfoot.Lateral			L.Midfoot.Superior			L.Toe			L.Elbow			L.Wrist			R.Elbow			R.Wrist			
		X1	Y1	Z1	X2	Y2	Z2	X3	Y3	Z3	X4	Y4	Z4	X5	Y5	Z5	X6	Y6	Z6	X7	Y7	Z7	X8	Y8	Z8	X9	Y9	Z9	X10	Y10	Z10	X11	Y11	Z11	X12	Y12	Z12	X13	Y13	Z13	X14	Y14	Z14	X15	Y15	Z15	X16	Y16	Z16	X17	Y17	Z17	X18	Y18	Z18	X19	Y19	Z19	X20	Y20	Z20	X21	Y21	Z21	X22	Y22	Z22	X23	Y23	Z23	X24	Y24	Z24	X25	Y25	Z25	X26	Y26	Z26	X27	Y27	Z27	X28	Y28	Z28	X29	Y29	Z29	X30	Y30	Z30	X31	Y31	Z31	X32	Y32	Z32	X33	Y33	Z33	

124	37.709285714286	874.235659597881	956.185028587747	341.384421398785	684.623324920695	1003.330995922839	527.621820928408	826.083425596350	1424.922319439377	320.253892078493	956.165231500416	1357.537430101291	461.563272858352	904.288434514118	1436.065593534440	646.846309765155	854.920253989490	1489.032710665138	466.757048994825	923.226376581999	931.672740740660	611.361693343899	925.810957824428	720.937607076939	576.843272039031	832.338299960736	623.165526664626	644.176278020461	885.853358308050	561.450437901643	555.733798246083	867.946141306134	473.352868085072	558.121411925535	952.019816770409	768.565825722384	367.919208392305	889.231275491072	641.058301625174	302.214321644016	992.140509056995	579.284905361277	359.874331586716	1009.186874861991	508.919939122065	361.316592441317	989.849670521092	435.745664381195	350.341493356270	914.165737451357	312.313797052545	297.682957309512	990.161380880737	206.545540811411	355.493546075314	827.875971951378	389.691957233175	567.439168423003	747.814791888414	297.002331699657	634.809302482808	765.144955811869	199.129717434225	567.167042413272	606.135265842077	45.391389446608	547.539970680635	780.117517978430	96.026360011792	571.935692878963	693.155719517246	37.246733339497	617.447228695479	900.562613973499	40.639700267227	595.705654070957	887.349763056773	39.000133434483	390.023199077104	963.156375867839	38.046079574259	311.344259961423	1041.470540979761	105.064210729135	336.332072041998	1171.769009564808	61.332944202605	312.643084372345	725.599882624717	1078.664419865414	225.136923958922	774.174989599847	823.065830507893	192.883141859759	1015.644119192332	1106.834456697433	747.304870701557	1237.380425756817	1092.884137513992	625.890409997966	
125	37.722857142857	875.984043939320	955.304962311669	339.969997764053	686.005650799177	1002.822523473476	525.596930587017	826.282072787683	1424.215734475023	317.780844837208	956.415518200601	1357.407147641410	459.352257744421	903.875035247689	1435.783587098176	644.562489270787	854.759405158163	1488.590124839171	464.194283379135	924.405455705357	931.426506074499	610.014990317366	925.558930739926	720.134919889116	576.347161584405	830.511921559973	623.111514067041	643.257071772711	883.940056421466	560.680262144606	555.426871703879	865.070723094346	472.504335664121	557.667311549513	953.200539520054	766.756202735730	367.104448884701	889.174660972941	639.586573973388	302.061999230706	991.929132790377	577.441964725594	359.763694314471	1007.826982461119	506.339653737444	361.699959256739	987.697669784258	433.028912470724	350.841033236721	910.149636354967	310.739462331691	298.119431198225	983.655227307195	203.730351200157	356.664090127010	824.208254456570	389.421494684188	567.100457308341	743.119670879712	297.672976352746	634.695377506528	759.629987372901	199.412818795904	567.205332379137	599.477670710183	46.498588819301	547.713280905513	773.744133442115	96.196496472481	572.170878386149	686.518937405559	37.710199348576	617.520738885030	893.873760974499	40.178886298087	595.771621201199	876.906429314710	38.536661272319	390.597977547811	953.002937455373	36.693531724635	312.070131519802	1032.787197590214	101.709657777384	338.117024181203	1162.564581648953	55.144866586539	314.416887333461	726.079215284277	1077.899012583724	222.962656082099	776.027825556537	822.471970651504	190.609210308656	1012.873849900799	1105.029461209017	744.297869346656	1233.617296921197	1088.859861879543	621.057075250301	
126	37.736428571429	877.558273306258	954.733161287755	338.398912714904	687.326641494149	1002.578165885317	523.528875889780	826.638892624277	1423.752986415680	315.282767817155	956.809041820507	1357.420828287730	457.079097010417	903.710961098366	1435.690921961548	642.220149547619	854.813304421671	1488.353160139443	461.592443574692	925.544779025851	931.313150694292	608.499218996668	925.450358410014	719.547579254142	575.681104957084	828.978132786930	623.219623050539	642.205743623442	882.402514860412	560.097250794788	554.979265191630	862.690019657254	471.726075364162	557.187931631843	954.133626505180	765.248908068776	366.354608068905	889.318587520910	638.567692681771	301.570709673858	991.606246124363	575.945307510211	359.714222733402	1006.582684350662	504.260850804035	361.952848819040	985.782926513188	430.865918759078	351.152205331216	906.814332359103	309.593057244914	298.167607220295	977.865514146734	201.545594810845	357.563858547044	820.902292009469	389.262659345117	566.724765646177	738.675257967742	298.572062528320	634.559814325379	754.332895168221	199.875295203300	567.277644067857	592.886288447091	47.983511401106	547.939693834671	767.534920860831	96.458787968808	572.467266372558	679.951079211056	38.354786643488	617.630644885677	887.243245523592	39.678372847759	595.839765795863	867.690976055849	38.228594560080	390.909468609213	944.048151219693	35.818058068772	312.542177978756	1024.914302552594	99.257839074848	339.550839009729	1154.309322351427	50.516450799774	315.836242840442	726.883514795416	1077.343952437479	220.641807035806	778.299903419530	822.110960077271	188.184856567196	1009.663276417186	1103.296230679530	741.556126348916	1229.503813693287	1083.709887780334	616.721930713024	
127	37.750000000000	878.895507393202	954.501072339765	336.638830896121	688.535381243175	1002.604729144610	521.419899320320	827.135795283833	1423.567699220246	312.803399486314	957.336587820898	1357.573573964428	454.762858838871	903.835880828279	1435.800612761862	639.841852988078	855.088122935782	1488.336762091544	459.000704573393	926.597428058588	931.345092797295	606.801242991091	925.460505901273	719.201563638465	574.799004337870	827.794296761846	623.479216676090	641.012271724548	881.310759975080	559.708676053239	554.366095756887	860.908573688624	470.997638300283	556.691391092284	954.843888092072	764.177402739318	365.615549460376	889.673973408337	638.025149648579	300.755977074799	991.218675398709	574.847499082273	359.631854792651	1005.462095483483	502.703458436116	362.044236623928	984.094945056073	429.259530868046	351.281683622766	904.098382623931	308.895046508645	297.850321125356	972.720017245009	199.989070800663	358.201593540199	818.023010893669	389.197780038632	566.307333949018	734.536563401867	299.702352155522	634.388740391422	749.292001061531	200.520014664094	567.382344894733	586.375775321780	49.887054383675	548.218053605978	761.508332755295	96.822262919833	572.822028745658	673.457426856440	39.203288790237	617.776974539503	880.672499470804	39.156944176593	595.906749079817	859.622198353266	38.089834319984	391.014335754987	936.186314341953	35.371851658817	312.798664054922	1017.788898471868	97.655472375777	340.604836305690	1146.919888051071	47.332841044722	316.843976510302	727.989310008933	1077.045726358921	218.183268273593	780.973631988760	822.036118826391	185.628310233263	1006.055229853835	1101.688756307072	739.102169286838	1225.035274934923	1077.438369756797	612.937319618314	
